<?xml version="1.0" standalone="no"?>
<!DOCTYPE svg PUBLIC "-//W3C//DTD SVG 20010904//EN"
 "http://www.w3.org/TR/2001/REC-SVG-20010904/DTD/svg10.dtd">
<svg version="1.0" xmlns="http://www.w3.org/2000/svg"
 width="100.000000pt" height="100.000000pt" viewBox="0 0 100.000000 100.000000"
 preserveAspectRatio="xMidYMid meet">

<g transform="translate(0.000000,100.000000) scale(0.100000,-0.100000)"
fill="#000000" stroke="none">
<path d="M380 984 c-185 -49 -331 -200 -369 -382 -64 -306 177 -602 489 -602
270 0 500 230 500 500 0 230 -172 442 -398 489 -71 15 -155 13 -222 -5z m287
-271 c30 -14 83 -77 83 -100 0 -16 -41 -22 -185 -29 -114 -6 -299 7 -314 21
-7 8 49 84 75 101 51 34 273 38 341 7z m-449 -90 c2 -9 -7 -13 -27 -13 -30 0
-39 9 -24 24 11 10 46 3 51 -11z m630 0 c2 -9 -8 -13 -32 -13 -34 0 -44 8 -29
24 11 11 56 2 61 -11z m-565 -56 c30 -15 48 -20 50 -13 3 6 21 -5 41 -24 37
-35 37 -35 131 -35 93 0 94 0 126 33 29 30 58 44 44 22 -3 -6 15 1 41 15 78
41 118 33 135 -28 14 -51 3 -150 -20 -179 -24 -29 -86 -36 -326 -37 -212 -1
-309 9 -334 34 -11 10 -16 43 -19 109 -4 89 -3 94 19 110 32 22 57 20 112 -7z
m-153 -232 c0 -20 -44 -20 -60 0 -11 13 -7 15 24 15 25 0 36 -4 36 -15z m810
5 c0 -12 -45 -24 -59 -15 -22 13 -10 25 24 25 19 0 35 -4 35 -10z m-33 -53
c-5 -16 -808 -18 -814 -2 -2 7 136 11 408 13 323 1 410 -1 406 -11z m-637 -67
c0 -13 -127 -13 -135 0 -4 6 20 10 64 10 41 0 71 -4 71 -10z m220 0 c0 -6 -30
-10 -69 -10 -39 0 -73 5 -76 10 -4 6 22 10 69 10 44 0 76 -4 76 -10z m380 0
c0 -6 -58 -10 -155 -10 -97 0 -155 4 -155 10 0 6 58 10 155 10 97 0 155 -4
155 -10z"/>
<path d="M354 696 c-17 -8 -41 -27 -53 -44 l-21 -30 27 -6 c102 -20 369 -17
403 4 18 11 -15 54 -57 75 -41 20 -253 21 -299 1z"/>
<path d="M184 536 c-13 -34 51 -86 105 -86 31 0 26 18 -18 61 -39 40 -77 50
-87 25z"/>
<path d="M737 515 c-48 -46 -49 -70 -4 -61 45 9 81 38 85 69 5 40 -36 36 -81
-8z"/>
<path d="M170 448 c0 -39 22 -86 43 -92 43 -11 63 -6 85 24 27 36 51 41 28 5
-9 -13 -16 -27 -16 -30 0 -3 88 -5 196 -5 l195 0 -21 30 c-17 24 -18 30 -6 30
8 0 23 -14 33 -31 16 -28 21 -30 58 -26 21 3 45 14 52 23 12 16 19 84 9 84 -2
0 -21 -7 -42 -16 -56 -24 -511 -23 -566 0 -45 19 -48 19 -48 4z"/>
</g>
</svg>
